<svg width="41" height="40" viewBox="0 0 41 40" fill="none" xmlns="http://www.w3.org/2000/svg">
<rect x="0.596802" width="40" height="40" rx="10" fill="#0F0C07"/>
<path fill-rule="evenodd" clip-rule="evenodd" d="M16.3255 18.3235C16.1986 18.1574 15.9942 18.0697 15.7865 18.0922C15.5787 18.1148 15.3979 18.2444 15.3096 18.434L10.1617 28.7338C10.0664 28.9246 10.0766 29.1513 10.1887 29.3328C10.3008 29.5143 10.4988 29.6248 10.712 29.6248H17.8802C18.1147 29.6303 18.3304 29.4968 18.4304 29.2844C19.9767 26.087 19.0396 21.2253 16.3255 18.3235Z" fill="url(#paint0_linear_2_188)"/>
<path fill-rule="evenodd" clip-rule="evenodd" d="M20.1012 8.95542C17.4917 12.9735 17.1905 18.0701 19.3086 22.3679L22.7644 29.2845C22.8686 29.493 23.0817 29.6248 23.3147 29.6248H30.4815C30.6948 29.6248 30.8928 29.5143 31.0049 29.3328C31.117 29.1513 31.1272 28.9246 31.0318 28.7338C31.0318 28.7338 21.39 9.43427 21.1477 8.95155C21.0499 8.75105 20.8462 8.62418 20.6232 8.625C20.4003 8.62583 20.1975 8.7542 20.1012 8.95542Z" fill="#2684FF"/>
<defs>
<linearGradient id="paint0_linear_2_188" x1="19.1468" y1="19.9131" x2="11.9262" y2="27.664" gradientUnits="userSpaceOnUse">
<stop stop-color="#0052CC"/>
<stop offset="0.923" stop-color="#2684FF"/>
</linearGradient>
</defs>
</svg>
