<svg width="17" height="16" viewBox="0 0 17 16" fill="none" xmlns="http://www.w3.org/2000/svg">
<path d="M8.5968 9.33333C9.70137 9.33333 10.5968 8.4379 10.5968 7.33333C10.5968 6.22876 9.70137 5.33333 8.5968 5.33333C7.49223 5.33333 6.5968 6.22876 6.5968 7.33333C6.5968 8.4379 7.49223 9.33333 8.5968 9.33333Z" stroke="#40577D" stroke-width="1.5" stroke-linecap="round" stroke-linejoin="round"/>
<path d="M12.3682 11.1047L9.53949 13.9333C9.28948 14.1831 8.95055 14.3234 8.59716 14.3234C8.24377 14.3234 7.90483 14.1831 7.65482 13.9333L4.82549 11.1047C4.07964 10.3588 3.57172 9.40847 3.36595 8.37391C3.16018 7.33935 3.26582 6.26701 3.66949 5.29249C4.07317 4.31796 4.75676 3.48503 5.63381 2.899C6.51087 2.31298 7.542 2.00019 8.59682 2.00019C9.65165 2.00019 10.6828 2.31298 11.5598 2.899C12.4369 3.48503 13.1205 4.31796 13.5242 5.29249C13.9278 6.26701 14.0335 7.33935 13.8277 8.37391C13.6219 9.40847 13.114 10.3588 12.3682 11.1047V11.1047Z" stroke="#40577D" stroke-width="1.5" stroke-linecap="round" stroke-linejoin="round"/>
</svg>
