<svg width="73" height="72" viewBox="0 0 73 72" fill="none" xmlns="http://www.w3.org/2000/svg">
<rect x="0.5" width="72" height="72" rx="12" fill="#0F0C07"/>
<path fill-rule="evenodd" clip-rule="evenodd" d="M27.8069 34.3688C27.5486 34.0307 27.1326 33.8522 26.7097 33.8981C26.2869 33.9441 25.9189 34.2079 25.7392 34.5936L15.262 55.5563C15.0679 55.9448 15.0887 56.406 15.3168 56.7755C15.545 57.1449 15.948 57.3698 16.382 57.3698H30.9709C31.4483 57.3809 31.8874 57.1093 32.0909 56.6771C35.2379 50.1695 33.3307 40.2747 27.8069 34.3688Z" fill="url(#paint0_linear_2_148)"/>
<path fill-rule="evenodd" clip-rule="evenodd" d="M35.4914 15.3023C30.1803 23.4801 29.5673 33.853 33.8782 42.6002L40.9117 56.6771C41.1238 57.1017 41.5574 57.3698 42.0317 57.3699H56.618C57.052 57.3699 57.455 57.145 57.6832 56.7755C57.9113 56.4061 57.9321 55.9448 57.738 55.5564C57.738 55.5564 38.1144 16.2769 37.6213 15.2945C37.4223 14.8864 37.0076 14.6282 36.5538 14.6298C36.1001 14.6315 35.6873 14.8928 35.4914 15.3023Z" fill="#2684FF"/>
<defs>
<linearGradient id="paint0_linear_2_148" x1="33.5488" y1="37.6039" x2="18.8532" y2="53.379" gradientUnits="userSpaceOnUse">
<stop stop-color="#0052CC"/>
<stop offset="0.923" stop-color="#2684FF"/>
</linearGradient>
</defs>
</svg>
